#Comment line ignore any data following # character 
#Hierarchical Translation and Rotation (.htr) file 
[Header]	
#Header keywords are followed by a single value 
FileType HTR		#Single word string
DataType HTRS		#Translation followed by rotation and scale data
FileVersion 1		#integer
NumSegments 84		#integer
NumFrames 2		#integer
DataFrameRate 30		#integer, data frame rate in this file
EulerRotationOrder ZYX
CalibrationUnits mm
RotationUnits Degrees
GlobalAxisofGravity Y
BoneLengthAxis Y
ScaleFactor 1.00
[SegmentNames&Hierarchy]
#CHILD	PARENT
MASTER GLOBAL
root MASTER
chest root
L_mid_tent01 root
R_mid_tent01 root
spine01 root
Bip01_Neck chest
L_humerus chest
R_humerus chest
weapon_bone chest
Bip01_Head Bip01_Neck
eye_left_bone Bip01_Head
eye_right_bone Bip01_Head
L_forearm L_humerus
L_front_hand L_forearm
L_weapon_bone L_forearm
L_front_hand01_01 L_front_hand
L_front_hand02_01 L_front_hand
L_front_hand03_01 L_front_hand
L_front_hand01_02 L_front_hand01_01
L_front_hand02_02 L_front_hand02_01
L_front_hand03_02 L_front_hand03_01
R_forearm R_humerus
R_front_hand R_forearm
R_weapon_bone R_forearm
R_front_hand01_01 R_front_hand
R_front_hand02_01 R_front_hand
R_front_hand03_01 R_front_hand
R_front_hand01_02 R_front_hand01_01
R_front_hand02_02 R_front_hand02_01
R_front_hand03_02 R_front_hand03_01
null_rope01_connect L_mid_tent01
Rope1_Seg01 null_rope01_connect
Rope1_Seg02 Rope1_Seg01
Rope1_Seg03 Rope1_Seg02
Rope1_Seg04 Rope1_Seg03
Rope1_Seg05 Rope1_Seg04
Rope1_Seg06 Rope1_Seg05
Rope1_Seg07 Rope1_Seg06
Rope1_Seg09 Rope1_Seg07
L_mid_hand01 Rope1_Seg09
L_mid_hand02 Rope1_Seg09
L_mid_hand03 Rope1_Seg09
null_rope02_connect R_mid_tent01
Rope2_Seg01 null_rope02_connect
Rope2_Seg02 Rope2_Seg01
Rope2_Seg03 Rope2_Seg02
Rope2_Seg04 Rope2_Seg03
Rope2_Seg05 Rope2_Seg04
Rope2_Seg06 Rope2_Seg05
Rope2_Seg07 Rope2_Seg06
Rope2_Seg09 Rope2_Seg07
R_mid_hand01 Rope2_Seg09
R_mid_hand02 Rope2_Seg09
R_mid_hand03 Rope2_Seg09
spine02 spine01
spine03 spine02
pelvis spine03
null_rope03_connect pelvis
null_rope04_connect pelvis
Rope3_Seg01 null_rope03_connect
Rope3_Seg02 Rope3_Seg01
Rope3_Seg03 Rope3_Seg02
Rope3_Seg04 Rope3_Seg03
Rope3_Seg05 Rope3_Seg04
Rope3_Seg06 Rope3_Seg05
Rope3_Seg07 Rope3_Seg06
Rope3_Seg08 Rope3_Seg07
Rope3_Seg09 Rope3_Seg08
R_rear_hand01 Rope3_Seg09
R_rear_hand02 Rope3_Seg09
R_rear_hand03 Rope3_Seg09
Rope4_Seg01 null_rope04_connect
Rope4_Seg02 Rope4_Seg01
Rope4_Seg03 Rope4_Seg02
Rope4_Seg04 Rope4_Seg03
Rope4_Seg05 Rope4_Seg04
Rope4_Seg06 Rope4_Seg05
Rope4_Seg07 Rope4_Seg06
Rope4_Seg08 Rope4_Seg07
Rope4_Seg09 Rope4_Seg08
L_rear_hand01 Rope4_Seg09
L_rear_hand02 Rope4_Seg09
L_rear_hand03 Rope4_Seg09
[BasePosition]
#SegmentName Tx, Ty, Tz, Rx, Ry, Rz, BoneLength
MASTER 0.000000 0.000000 0.000000 -90.000000 0.000000 0.000000 10.000000 
root 0.000000 0.000000 0.000000 0.000000 0.000000 0.000000 10.000000 
chest 0.000000 0.000000 0.000000 0.000000 0.000000 0.000000 10.000000 
L_mid_tent01 0.000000 0.000000 0.000000 0.000000 0.000000 0.000000 10.000000 
R_mid_tent01 0.000000 0.000000 0.000000 0.000000 0.000000 0.000000 10.000000 
spine01 0.000000 0.000000 0.000000 0.000000 0.000000 0.000000 10.000000 
Bip01_Neck 0.000000 0.000000 0.000000 0.000000 0.000000 0.000000 10.000000 
L_humerus 0.000000 0.000000 0.000000 0.000000 0.000000 0.000000 10.000000 
R_humerus 0.000000 0.000000 0.000000 0.000000 0.000000 0.000000 10.000000 
weapon_bone 0.000000 0.000000 0.000000 0.000000 0.000000 0.000000 10.000000 
Bip01_Head 0.000000 0.000000 0.000000 0.000000 0.000000 0.000000 10.000000 
eye_left_bone 0.000000 0.000000 0.000000 0.000000 0.000000 0.000000 10.000000 
eye_right_bone 0.000000 0.000000 0.000000 0.000000 0.000000 0.000000 10.000000 
L_forearm 0.000000 0.000000 0.000000 0.000000 0.000000 0.000000 10.000000 
L_front_hand 0.000000 0.000000 0.000000 0.000000 0.000000 0.000000 10.000000 
L_weapon_bone 0.000000 0.000000 0.000000 0.000000 0.000000 0.000000 10.000000 
L_front_hand01_01 0.000000 0.000000 0.000000 0.000000 0.000000 0.000000 10.000000 
L_front_hand02_01 0.000000 0.000000 0.000000 0.000000 0.000000 0.000000 10.000000 
L_front_hand03_01 0.000000 0.000000 0.000000 0.000000 0.000000 0.000000 10.000000 
L_front_hand01_02 0.000000 0.000000 0.000000 0.000000 0.000000 0.000000 10.000000 
L_front_hand02_02 0.000000 0.000000 0.000000 0.000000 0.000000 0.000000 10.000000 
L_front_hand03_02 0.000000 0.000000 0.000000 0.000000 0.000000 0.000000 10.000000 
R_forearm 0.000000 0.000000 0.000000 0.000000 0.000000 0.000000 10.000000 
R_front_hand 0.000000 0.000000 0.000000 0.000000 0.000000 0.000000 10.000000 
R_weapon_bone 0.000000 0.000000 0.000000 0.000000 0.000000 0.000000 10.000000 
R_front_hand01_01 0.000000 0.000000 0.000000 0.000000 0.000000 0.000000 10.000000 
R_front_hand02_01 0.000000 0.000000 0.000000 0.000000 0.000000 0.000000 10.000000 
R_front_hand03_01 0.000000 0.000000 0.000000 0.000000 0.000000 0.000000 10.000000 
R_front_hand01_02 0.000000 0.000000 0.000000 0.000000 0.000000 0.000000 10.000000 
R_front_hand02_02 0.000000 0.000000 0.000000 0.000000 0.000000 0.000000 10.000000 
R_front_hand03_02 0.000000 0.000000 0.000000 0.000000 0.000000 0.000000 10.000000 
null_rope01_connect 0.000000 0.000000 0.000000 0.000000 0.000000 0.000000 10.000000 
Rope1_Seg01 0.000000 0.000000 0.000000 0.000000 0.000000 0.000000 10.000000 
Rope1_Seg02 0.000000 0.000000 0.000000 0.000000 0.000000 0.000000 10.000000 
Rope1_Seg03 0.000000 0.000000 0.000000 0.000000 0.000000 0.000000 10.000000 
Rope1_Seg04 0.000000 0.000000 0.000000 0.000000 0.000000 0.000000 10.000000 
Rope1_Seg05 0.000000 0.000000 0.000000 0.000000 0.000000 0.000000 10.000000 
Rope1_Seg06 0.000000 0.000000 0.000000 0.000000 0.000000 0.000000 10.000000 
Rope1_Seg07 0.000000 0.000000 0.000000 0.000000 0.000000 0.000000 10.000000 
Rope1_Seg09 0.000000 0.000000 0.000000 0.000000 0.000000 0.000000 10.000000 
L_mid_hand01 0.000000 0.000000 0.000000 0.000000 0.000000 0.000000 10.000000 
L_mid_hand02 0.000000 0.000000 0.000000 0.000000 0.000000 0.000000 10.000000 
L_mid_hand03 0.000000 0.000000 0.000000 0.000000 0.000000 0.000000 10.000000 
null_rope02_connect 0.000000 0.000000 0.000000 0.000000 0.000000 0.000000 10.000000 
Rope2_Seg01 0.000000 0.000000 0.000000 0.000000 0.000000 0.000000 10.000000 
Rope2_Seg02 0.000000 0.000000 0.000000 0.000000 0.000000 0.000000 10.000000 
Rope2_Seg03 0.000000 0.000000 0.000000 0.000000 0.000000 0.000000 10.000000 
Rope2_Seg04 0.000000 0.000000 0.000000 0.000000 0.000000 0.000000 10.000000 
Rope2_Seg05 0.000000 0.000000 0.000000 0.000000 0.000000 0.000000 10.000000 
Rope2_Seg06 0.000000 0.000000 0.000000 0.000000 0.000000 0.000000 10.000000 
Rope2_Seg07 0.000000 0.000000 0.000000 0.000000 0.000000 0.000000 10.000000 
Rope2_Seg09 0.000000 0.000000 0.000000 0.000000 0.000000 0.000000 10.000000 
R_mid_hand01 0.000000 0.000000 0.000000 0.000000 0.000000 0.000000 10.000000 
R_mid_hand02 0.000000 0.000000 0.000000 0.000000 0.000000 0.000000 10.000000 
R_mid_hand03 0.000000 0.000000 0.000000 0.000000 0.000000 0.000000 10.000000 
spine02 0.000000 0.000000 0.000000 0.000000 0.000000 0.000000 10.000000 
spine03 0.000000 0.000000 0.000000 0.000000 0.000000 0.000000 10.000000 
pelvis 0.000000 0.000000 0.000000 0.000000 0.000000 0.000000 10.000000 
null_rope03_connect 0.000000 0.000000 0.000000 0.000000 0.000000 0.000000 10.000000 
null_rope04_connect 0.000000 0.000000 0.000000 0.000000 0.000000 0.000000 10.000000 
Rope3_Seg01 0.000000 0.000000 0.000000 0.000000 0.000000 0.000000 10.000000 
Rope3_Seg02 0.000000 0.000000 0.000000 0.000000 0.000000 0.000000 10.000000 
Rope3_Seg03 0.000000 0.000000 0.000000 0.000000 0.000000 0.000000 10.000000 
Rope3_Seg04 0.000000 0.000000 0.000000 0.000000 0.000000 0.000000 10.000000 
Rope3_Seg05 0.000000 0.000000 0.000000 0.000000 0.000000 0.000000 10.000000 
Rope3_Seg06 0.000000 0.000000 0.000000 0.000000 0.000000 0.000000 10.000000 
Rope3_Seg07 0.000000 0.000000 0.000000 0.000000 0.000000 0.000000 10.000000 
Rope3_Seg08 0.000000 0.000000 0.000000 0.000000 0.000000 0.000000 10.000000 
Rope3_Seg09 0.000000 0.000000 0.000000 0.000000 0.000000 0.000000 10.000000 
R_rear_hand01 0.000000 0.000000 0.000000 0.000000 0.000000 0.000000 10.000000 
R_rear_hand02 0.000000 0.000000 0.000000 0.000000 0.000000 0.000000 10.000000 
R_rear_hand03 0.000000 0.000000 0.000000 0.000000 0.000000 0.000000 10.000000 
Rope4_Seg01 0.000000 0.000000 0.000000 0.000000 0.000000 0.000000 10.000000 
Rope4_Seg02 0.000000 0.000000 0.000000 0.000000 0.000000 0.000000 10.000000 
Rope4_Seg03 0.000000 0.000000 0.000000 0.000000 0.000000 0.000000 10.000000 
Rope4_Seg04 0.000000 0.000000 0.000000 0.000000 0.000000 0.000000 10.000000 
Rope4_Seg05 0.000000 0.000000 0.000000 0.000000 0.000000 0.000000 10.000000 
Rope4_Seg06 0.000000 0.000000 0.000000 0.000000 0.000000 0.000000 10.000000 
Rope4_Seg07 0.000000 0.000000 0.000000 0.000000 0.000000 0.000000 10.000000 
Rope4_Seg08 0.000000 0.000000 0.000000 0.000000 0.000000 0.000000 10.000000 
Rope4_Seg09 0.000000 0.000000 0.000000 0.000000 0.000000 0.000000 10.000000 
L_rear_hand01 0.000000 0.000000 0.000000 0.000000 0.000000 0.000000 10.000000 
L_rear_hand02 0.000000 0.000000 0.000000 0.000000 0.000000 0.000000 10.000000 
L_rear_hand03 0.000000 0.000000 0.000000 0.000000 0.000000 0.000000 10.000000 
#Beginning of Data. Separated by tabs
#Fr	Tx	Ty	Tz	Rx	Ry	Rz	SF
[MASTER]
1 0.000000 0.000000 0.000000 0.001660 0.001660 0.001660 0.000000
2 -19.648932 137.178207 -6.206273 0.001660 0.001660 0.001660 138.717194
[root]
1 -16.502302 9.364137 1448.320068 -91.728889 -11.584497 -89.471619 1448.444336
2 -13.479786 -32.358425 1466.385132 -90.770264 -3.544366 -90.549652 1466.803955
[chest]
1 -84.512650 -34.090519 0.000000 -2.170494 -0.006436 168.239609 91.129311
2 -84.512650 -34.090519 0.000000 -1.463736 0.576499 166.854904 91.129311
[L_mid_tent01]
1 27.299080 22.179106 -249.918701 -20.661392 12.026043 12.983022 252.381683
2 27.299068 22.179102 -249.918701 -12.717322 11.910913 32.844513 252.381683
[R_mid_tent01]
1 23.228794 24.509907 226.238495 -165.192200 -17.956036 24.056787 228.744751
2 23.228794 24.509907 226.238495 179.416687 -20.808069 52.804115 228.744751
[spine01]
1 -0.361383 -0.195265 0.000000 -0.000001 -0.000007 22.052340 0.410763
2 -0.361383 -0.195265 0.000000 -0.000001 -0.000007 22.052340 0.410763
[Bip01_Neck]
1 165.484543 71.581718 0.000119 176.643677 -1.657967 43.431911 180.302734
2 165.484543 71.581718 0.000119 176.643677 -1.657967 43.431911 180.302734
[L_humerus]
1 -13.983130 -135.272980 -120.471481 -5.480129 68.873367 84.573456 181.680161
2 -13.983130 -135.272980 -120.471481 -5.012595 68.631248 85.005936 181.680161
[R_humerus]
1 -13.983309 -135.273102 125.287651 27.897165 -69.888802 67.752319 184.909012
2 -13.983309 -135.273102 125.287651 28.121914 -70.697929 67.504646 184.909012
[weapon_bone]
1 235.964890 -300.705902 0.000000 0.000000 -89.951546 -128.212341 382.234833
2 235.964890 -300.705902 0.000000 0.000000 -89.951546 -128.212341 382.234833
[Bip01_Head]
1 213.444290 185.715332 11.776952 4.962490 2.797846 -43.898743 283.173706
2 213.440506 185.725937 11.640237 4.962490 2.797846 -43.898743 283.172150
[eye_left_bone]
1 -24.626970 125.451866 -64.772606 0.000000 -90.000000 -99.840431 143.318359
2 -24.626970 125.451866 -64.772606 0.000000 -90.000000 -99.840431 143.318359
[eye_right_bone]
1 -24.626970 125.451866 64.327362 0.000000 -89.965736 80.156380 143.117676
2 -24.626970 125.451866 64.327362 0.000000 -89.965736 80.156380 143.117676
[L_forearm]
1 322.776093 0.000000 -0.000119 0.000396 -0.002314 -109.419975 322.776093
2 322.776093 0.000000 -0.000119 0.000396 -0.002314 -109.438148 322.776093
[L_front_hand]
1 241.149185 -0.042021 -3.300071 -178.667953 -1.835447 -27.422350 241.171753
2 241.149185 -0.042021 -3.300071 -178.128036 -1.836223 -27.422663 241.171753
[L_weapon_bone]
1 156.183838 0.000000 0.000000 0.000014 0.000007 0.000001 156.183838
2 156.183838 0.000000 0.000000 0.000014 0.000007 0.000001 156.183838
[L_front_hand01_01]
1 86.095154 20.947098 -0.655860 -0.366594 -0.477154 75.385574 88.609184
2 86.095154 20.947098 -0.655860 -0.366594 -0.477154 75.385574 88.609184
[L_front_hand02_01]
1 86.935165 -11.437475 24.513514 154.399796 -59.883835 -61.369587 91.046425
2 86.935165 -11.437475 24.513514 154.399796 -59.883835 -61.369587 91.046425
[L_front_hand03_01]
1 86.637497 -14.123976 -20.424902 -153.913849 58.118122 -62.702866 90.126129
2 86.637497 -14.123976 -20.424902 -153.913849 58.118122 -62.702866 90.126129
[L_front_hand01_02]
1 71.020905 -0.000179 0.000030 0.000327 -0.002324 -106.033371 71.020905
2 71.020905 -0.000179 0.000030 0.000326 -0.002324 -105.985046 71.020905
[L_front_hand02_02]
1 71.020927 -0.000119 0.000060 0.000327 -0.002324 -106.033371 71.020927
2 71.020927 -0.000119 0.000060 0.000326 -0.002324 -105.985046 71.020927
[L_front_hand03_02]
1 71.020905 -0.000060 0.000060 0.000327 -0.002324 -106.033371 71.020905
2 71.020905 -0.000060 0.000060 0.000326 -0.002324 -105.985046 71.020905
[R_forearm]
1 322.776428 -0.000060 0.000030 0.202103 0.065158 -108.062805 322.776428
2 322.776428 -0.000060 0.000030 0.202091 0.065195 -108.084198 322.776428
[R_front_hand]
1 238.847015 -0.006795 2.210259 -2.635298 -10.645461 -26.312506 238.857239
2 238.847015 -0.006795 2.210259 -3.171190 -10.644628 -26.316782 238.857239
[R_weapon_bone]
1 155.664093 0.002503 -0.000030 0.003487 0.001180 -90.988930 155.664078
2 155.664093 0.002503 -0.000030 0.003487 0.001180 -90.988930 155.664078
[R_front_hand01_01]
1 87.624611 14.231146 22.918642 -154.633499 -59.950619 61.746044 91.683487
2 87.624611 14.231146 22.918642 -154.633499 -59.950619 61.746044 91.683487
[R_front_hand02_01]
1 89.356956 14.367283 -19.491137 154.602661 58.302849 63.744389 92.579636
2 89.356956 14.367283 -19.491137 154.602661 58.302849 63.744389 92.579636
[R_front_hand03_01]
1 87.286232 -22.307278 -0.143439 0.162155 -0.423168 -75.767921 90.091743
2 87.286232 -22.307278 -0.143439 0.162155 -0.423168 -75.767921 90.091743
[R_front_hand01_02]
1 71.020905 0.000060 0.000119 0.002327 -0.000310 105.159904 71.020905
2 71.020905 0.000060 0.000119 0.002327 -0.000307 105.047569 71.020905
[R_front_hand02_02]
1 71.020844 -0.000030 -0.000119 0.002327 -0.000310 105.159904 71.020836
2 71.020844 -0.000030 -0.000119 0.002327 -0.000307 105.047569 71.020836
[R_front_hand03_02]
1 71.020905 0.000000 0.000030 0.002327 -0.000310 105.159904 71.020905
2 71.020905 0.000000 0.000030 0.002327 -0.000307 105.047569 71.020905
[null_rope01_connect]
1 328.732483 0.000000 -0.000238 -154.483337 -64.791321 -118.914307 328.732483
2 328.732483 0.000000 -0.000238 -165.618210 -71.756706 -135.080536 328.732483
[Rope1_Seg01]
1 0.000038 -0.000038 0.000000 27.836367 0.226830 -129.909439 0.000054
2 0.000037 -0.000063 0.000003 18.229593 -11.714843 -128.200104 0.000073
[Rope1_Seg02]
1 139.999863 -0.000179 0.000000 7.378386 3.032895 2.195311 139.999863
2 139.999863 -0.000179 0.000000 11.288168 5.753204 -0.543923 139.999863
[Rope1_Seg03]
1 139.999924 0.000060 -0.000060 6.316894 3.419625 1.265758 139.999924
2 139.999924 0.000060 -0.000060 6.878762 6.953743 -2.717356 139.999924
[Rope1_Seg04]
1 139.999924 -0.000060 -0.000119 -1.648563 1.514577 -3.181430 139.999924
2 139.999924 -0.000060 -0.000119 -5.446098 5.896143 -12.194289 139.999924
[Rope1_Seg05]
1 139.999832 0.000119 -0.000060 32.331860 13.288376 15.250677 139.999832
2 139.999832 0.000119 -0.000060 23.204405 14.653337 12.767185 139.999832
[Rope1_Seg06]
1 139.999954 0.000119 -0.000060 18.061211 14.692777 6.020032 139.999954
2 139.999954 0.000119 -0.000060 21.925135 16.288511 13.543616 139.999954
[Rope1_Seg07]
1 139.999985 0.000060 0.000000 4.390831 5.871337 0.202168 139.999985
2 139.999985 0.000060 0.000000 5.025343 7.147650 1.302797 139.999985
[Rope1_Seg09]
1 121.602913 0.000119 -0.000089 -89.793175 -1.359789 0.847147 121.602913
2 121.602913 0.000119 -0.000089 -89.793175 -1.359789 0.847147 121.602913
[L_mid_hand01]
1 103.859421 1.038730 8.195221 130.544373 -67.584534 -38.866943 104.187431
2 103.859421 1.038730 8.195221 129.242477 -66.931091 -37.458961 104.187431
[L_mid_hand02]
1 105.572853 -4.139662 -10.864139 -168.923172 43.409309 -73.498886 106.211075
2 105.572853 -4.139662 -10.864139 -168.136536 43.236561 -72.353096 106.211075
[L_mid_hand03]
1 104.641464 17.579376 -3.913581 -6.012627 17.808174 74.893669 106.179977
2 104.641464 17.579376 -3.913581 -6.285014 17.719219 74.000862 106.179977
[null_rope02_connect]
1 328.732849 0.000179 -0.000119 -140.208786 68.099197 -35.150627 328.732849
2 328.732849 0.000179 -0.000119 -137.412399 70.155022 1.759591 328.732849
[Rope2_Seg01]
1 0.000038 0.000153 0.000000 5.600235 6.010039 -51.152805 0.000157
2 0.000039 0.000149 0.000000 -43.810963 -12.663640 -60.515942 0.000154
[Rope2_Seg02]
1 139.999741 -0.000060 -0.000119 -21.479364 -1.119323 -14.262233 139.999756
2 139.999741 -0.000060 -0.000119 14.275027 12.579083 2.616009 139.999756
[Rope2_Seg03]
1 140.000107 0.000030 0.000000 -6.384323 3.578379 -7.060875 140.000107
2 140.000107 0.000030 0.000000 12.675752 17.158031 4.045118 140.000107
[Rope2_Seg04]
1 139.999802 0.000000 -0.000060 -9.407637 2.218833 -11.261424 139.999802
2 139.999802 0.000000 -0.000060 -4.355971 9.067105 -9.473863 139.999802
[Rope2_Seg05]
1 139.999985 -0.000060 0.000119 -5.730293 1.949491 -8.493113 139.999985
2 139.999985 -0.000060 0.000119 -8.133409 -2.351160 -15.001037 139.999985
[Rope2_Seg06]
1 139.999893 -0.000030 -0.000119 -2.015303 1.476259 -3.670758 139.999893
2 139.999893 -0.000030 -0.000119 -2.515338 1.314186 -6.100259 139.999893
[Rope2_Seg07]
1 139.999893 0.000060 -0.000060 -1.136507 1.018014 -2.268961 139.999893
2 139.999893 0.000060 -0.000060 -1.292785 1.019345 -3.660744 139.999893
[Rope2_Seg09]
1 121.338966 0.000089 -0.000060 33.793236 -1.359788 -0.847141 121.338966
2 121.338966 0.000089 -0.000060 33.793236 -1.359788 -0.847141 121.338966
[R_mid_hand01]
1 104.680779 11.144459 -10.335981 -16.212063 45.237247 70.462852 105.778534
2 104.680779 11.144459 -10.335981 -16.562792 45.133286 69.965408 105.778534
[R_mid_hand02]
1 104.070427 2.443552 8.231699 49.067368 -67.749771 39.286453 104.424065
2 104.070427 2.443552 8.231699 49.649654 -67.470848 38.658398 104.424065
[R_mid_hand03]
1 106.028137 -11.221827 -5.996406 -177.101105 15.551026 -76.585571 106.788818
2 106.028137 -11.221827 -5.996406 -176.996689 15.531745 -76.202309 106.788818
[spine02]
1 129.756927 0.001550 0.000119 0.360061 -4.044797 -12.915058 129.756927
2 129.756927 0.001550 0.000119 0.382581 -4.042508 -13.274490 129.756927
[spine03]
1 78.614029 0.081635 -4.899001 1.896495 3.831288 16.473045 78.766563
2 78.614029 0.081635 -4.899002 1.910682 3.824205 16.688478 78.766563
[pelvis]
1 169.435242 0.051022 0.000000 -0.060465 -0.180225 14.087930 169.435257
2 169.435242 0.051022 0.000000 -0.061186 -0.179982 14.546503 169.435257
[null_rope03_connect]
1 -1.257226 -2.466202 137.391083 156.329987 -89.381348 -94.430771 137.418976
2 -1.257226 -2.466202 137.391083 -60.755421 -89.211670 114.292702 137.418976
[null_rope04_connect]
1 -1.259640 -2.480268 -137.844437 156.329987 -89.381348 -94.430771 137.872513
2 -1.259640 -2.480268 -137.844437 -60.755421 -89.211670 114.292702 137.872513
[Rope3_Seg01]
1 0.000076 -0.000038 0.000000 9.660563 28.641531 -96.804565 0.000085
2 0.000075 -0.000050 0.000000 9.448576 29.325022 -97.033699 0.000090
[Rope3_Seg02]
1 139.999924 -0.000119 0.000060 0.410147 -1.141788 4.202584 139.999924
2 139.999924 -0.000119 0.000060 0.282509 0.950543 4.614802 139.999924
[Rope3_Seg03]
1 139.999924 -0.000119 0.000119 0.239345 -1.335764 5.090015 139.999924
2 139.999924 -0.000119 0.000119 0.143481 0.722178 5.994651 139.999924
[Rope3_Seg04]
1 139.999924 0.000119 0.000000 -0.396818 -2.372664 9.394513 139.999924
2 139.999924 0.000119 0.000000 -0.364160 0.429464 8.217271 139.999924
[Rope3_Seg05]
1 139.999924 -0.000238 0.000060 0.188107 0.181264 -0.947630 139.999924
2 139.999924 -0.000238 0.000060 0.729186 3.302568 -5.169385 139.999924
[Rope3_Seg06]
1 139.999893 -0.000119 -0.000060 0.440165 1.839970 -7.564710 139.999893
2 139.999893 -0.000119 -0.000060 0.693964 2.643587 -6.714237 139.999893
[Rope3_Seg07]
1 139.999771 0.000060 -0.000119 0.405625 0.659934 -2.874764 139.999771
2 139.999771 0.000060 -0.000119 0.539012 1.369619 -2.643237 139.999771
[Rope3_Seg08]
1 139.999985 -0.000060 0.000000 0.441030 0.384229 -1.727938 139.999985
2 139.999985 -0.000060 0.000000 0.528485 0.845297 -1.671151 139.999985
[Rope3_Seg09]
1 90.185997 -0.000179 -0.000060 89.793228 -1.359877 -0.847183 90.185997
2 90.185997 -0.000179 -0.000060 89.793228 -1.359877 -0.847183 90.185997
[R_rear_hand01]
1 103.366196 -6.073594 -10.757982 -177.714203 24.565960 -73.910950 104.101845
2 103.366196 -6.073594 -10.757982 -177.501556 24.545221 -73.407959 104.101845
[R_rear_hand02]
1 100.509819 12.039542 -7.992327 -12.874829 36.868488 72.167213 101.543350
2 100.509819 12.039542 -7.992327 -13.210595 36.766563 71.607780 101.543350
[R_rear_hand03]
1 101.539970 5.215704 5.435467 71.484581 -71.816628 21.513813 101.819031
2 101.539970 5.215704 5.435467 71.918968 -71.383453 21.055584 101.819031
[Rope4_Seg01]
1 -0.000019 -0.000076 -0.000153 -105.782669 20.059692 -122.075928 0.000172
2 -0.000019 -0.000075 -0.000153 -109.362694 26.038139 -124.708534 0.000171
[Rope4_Seg02]
1 139.999985 0.000060 0.000119 -1.119095 -4.281693 1.117527 139.999985
2 139.999985 0.000060 0.000119 -1.399218 -4.157313 1.368999 139.999985
[Rope4_Seg03]
1 139.999924 0.000000 -0.000238 -1.008265 -4.856523 1.168161 139.999924
2 139.999924 0.000000 -0.000238 -1.310835 -4.766397 1.442337 139.999924
[Rope4_Seg04]
1 139.999985 0.000000 0.000119 -0.841277 -10.910584 -0.017355 139.999985
2 139.999985 0.000000 0.000119 -1.208515 -11.879835 0.018014 139.999985
[Rope4_Seg05]
1 139.999802 -0.000060 -0.000119 -0.291583 -4.035336 2.001438 139.999802
2 139.999802 -0.000060 -0.000119 -0.502730 -2.469976 2.738494 139.999802
[Rope4_Seg06]
1 139.999924 0.000000 0.000060 0.683264 11.327718 4.613235 139.999924
2 139.999924 0.000000 0.000060 0.986194 13.538375 5.559586 139.999924
[Rope4_Seg07]
1 139.999802 0.000000 0.000000 0.449533 6.480752 2.484311 139.999802
2 139.999802 0.000000 0.000000 0.484181 6.746904 2.720645 139.999802
[Rope4_Seg08]
1 139.999924 0.000000 0.000119 -1.443127 2.425292 1.158456 139.999924
2 139.999924 0.000000 0.000119 -1.452345 2.689290 1.288568 139.999924
[Rope4_Seg09]
1 90.185791 0.000060 0.000060 -135.617828 2.228885 0.850567 90.185791
2 90.185791 0.000060 0.000060 -135.617828 2.228885 0.850567 90.185791
[L_rear_hand01]
1 101.696655 -8.392275 -7.654577 -12.874829 -36.868488 107.832764 102.329041
2 101.696655 -8.392275 -7.654577 -14.225129 -36.428967 110.098549 102.329041
[L_rear_hand02]
1 102.726799 -1.568258 5.773216 71.484581 71.816628 158.486160 102.900848
2 102.726799 -1.568258 5.773216 73.119141 70.038223 160.218079 102.900848
[L_rear_hand03]
1 104.552910 9.721220 -10.420293 -177.714203 -24.565960 -106.089035 105.519653
2 104.552910 9.721220 -10.420293 -176.859985 -24.478331 -108.136047 105.519653
